HIERARCHY
ROOT Hips
{
    OFFSET   0.000000   0.000000   0.000000
    CHANNELS 6 Xposition Yposition Zposition Zrotation Xrotation Yrotation
    JOINT Chest
    {
        OFFSET   0.000000   8.007240   0.000000
        CHANNELS 3 Zrotation Xrotation Yrotation
        JOINT Chest2
        {
            OFFSET   0.000000  22.077100   0.000000
            CHANNELS 3 Zrotation Xrotation Yrotation
            JOINT Neck
            {
                OFFSET   0.000000  23.254800   0.000000
                CHANNELS 3 Zrotation Xrotation Yrotation
                JOINT Head
                {
                    OFFSET   0.000000  14.370000   1.956600
                    CHANNELS 3 Zrotation Xrotation Yrotation
                    End Site
                    {
                        OFFSET   0.000000  19.566000   0.000000
                    }
                }
            }
            JOINT LeftCollar
            {
                OFFSET   3.911900  19.017000  -0.467064
                CHANNELS 3 Zrotation Xrotation Yrotation
                JOINT LeftShoulder
                {
                    OFFSET  10.383700   0.000000   0.000000
                    CHANNELS 3 Zrotation Xrotation Yrotation
                    JOINT LeftElbow
                    {
                        OFFSET  26.662100   0.001476   0.000517
                        CHANNELS 3 Zrotation Xrotation Yrotation
                        JOINT LeftWrist
                        {
                            OFFSET  28.869000  -0.000025  -0.000106
                            CHANNELS 3 Zrotation Xrotation Yrotation
                            JOINT LeftFinger0
                            {
                                OFFSET   2.044660  -2.323460   3.252850
                                CHANNELS 3 Zrotation Xrotation Yrotation
                                JOINT LeftFinger01
                                {
                                    OFFSET   3.088130   0.000000   0.000000
                                    CHANNELS 3 Zrotation Xrotation Yrotation
                                    JOINT LeftFinger02
                                    {
                                        OFFSET   2.639460   0.000000   0.000000
                                        CHANNELS 3 Zrotation Xrotation Yrotation
                                        End Site
                                        {
                                            OFFSET   2.582190   0.000000   0.000000
                                        }
                                    }
                                }
                            }
                            JOINT LeftFinger1
                            {
                                OFFSET   8.364480   0.000000   3.252850
                                CHANNELS 3 Zrotation Xrotation Yrotation
                                JOINT LeftFinger11
                                {
                                    OFFSET   4.646930   0.000000   0.000000
                                    CHANNELS 3 Zrotation Xrotation Yrotation
                                    JOINT LeftFinger12
                                    {
                                        OFFSET   2.323460   0.000000   0.000000
                                        CHANNELS 3 Zrotation Xrotation Yrotation
                                        End Site
                                        {
                                            OFFSET   2.273050   0.000000   0.000000
                                        }
                                    }
                                }
                            }
                            JOINT LeftFinger2
                            {
                                OFFSET   8.364490   0.000015   1.078090
                                CHANNELS 3 Zrotation Xrotation Yrotation
                                JOINT LeftFinger21
                                {
                                    OFFSET   5.111620   0.000000   0.000000
                                    CHANNELS 3 Zrotation Xrotation Yrotation
                                    JOINT LeftFinger22
                                    {
                                        OFFSET   2.788160   0.000016   0.000000
                                        CHANNELS 3 Zrotation Xrotation Yrotation
                                        End Site
                                        {
                                            OFFSET   2.727660   0.000000   0.000000
                                        }
                                    }
                                }
                            }
                            JOINT LeftFinger3
                            {
                                OFFSET   7.899780   0.000017  -1.078090
                                CHANNELS 3 Zrotation Xrotation Yrotation
                                JOINT LeftFinger31
                                {
                                    OFFSET   4.646930   0.000000   0.000000
                                    CHANNELS 3 Zrotation Xrotation Yrotation
                                    JOINT LeftFinger32
                                    {
                                        OFFSET   2.323470   0.000000   0.000000
                                        CHANNELS 3 Zrotation Xrotation Yrotation
                                        End Site
                                        {
                                            OFFSET   2.273050   0.000000   0.000000
                                        }
                                    }
                                }
                            }
                            JOINT LeftFinger4
                            {
                                OFFSET   7.435090   0.000000  -3.252850
                                CHANNELS 3 Zrotation Xrotation Yrotation
                                JOINT LeftFinger41
                                {
                                    OFFSET   3.717550   0.000000   0.000000
                                    CHANNELS 3 Zrotation Xrotation Yrotation
                                    JOINT LeftFinger42
                                    {
                                        OFFSET   1.858770   0.000000   0.000000
                                        CHANNELS 3 Zrotation Xrotation Yrotation
                                        End Site
                                        {
                                            OFFSET   1.818440   0.000000   0.000000
                                        }
                                    }
                                }
                            }
                        }
                    }
                }
            }
            JOINT RightCollar
            {
                OFFSET  -3.911900  19.017000  -0.467063
                CHANNELS 3 Zrotation Xrotation Yrotation
                JOINT RightShoulder
                {
                    OFFSET -10.383700   0.000019   0.000000
                    CHANNELS 3 Zrotation Xrotation Yrotation
                    JOINT RightElbow
                    {
                        OFFSET -26.662100   0.001175   0.000102
                        CHANNELS 3 Zrotation Xrotation Yrotation
                        JOINT RightWrist
                        {
                            OFFSET -28.869000   0.000016  -0.000079
                            CHANNELS 3 Zrotation Xrotation Yrotation
                            JOINT RightFinger0
                            {
                                OFFSET  -2.044660  -2.323490   3.252850
                                CHANNELS 3 Zrotation Xrotation Yrotation
                                JOINT RightFinger01
                                {
                                    OFFSET  -3.088140   0.000000   0.000000
                                    CHANNELS 3 Zrotation Xrotation Yrotation
                                    JOINT RightFinger02
                                    {
                                        OFFSET  -2.639460   0.000000   0.000000
                                        CHANNELS 3 Zrotation Xrotation Yrotation
                                        End Site
                                        {
                                            OFFSET  -2.582190   0.000000   0.000000
                                        }
                                    }
                                }
                            }
                            JOINT RightFinger1
                            {
                                OFFSET  -8.364480   0.000000   3.252850
                                CHANNELS 3 Zrotation Xrotation Yrotation
                                JOINT RightFinger11
                                {
                                    OFFSET  -4.646930   0.000000   0.000000
                                    CHANNELS 3 Zrotation Xrotation Yrotation
                                    JOINT RightFinger12
                                    {
                                        OFFSET  -2.323470   0.000000   0.000000
                                        CHANNELS 3 Zrotation Xrotation Yrotation
                                        End Site
                                        {
                                            OFFSET  -2.273050   0.000000   0.000000
                                        }
                                    }
                                }
                            }
                            JOINT RightFinger2
                            {
                                OFFSET  -8.364480   0.000000   1.078090
                                CHANNELS 3 Zrotation Xrotation Yrotation
                                JOINT RightFinger21
                                {
                                    OFFSET  -5.111620   0.000000   0.000000
                                    CHANNELS 3 Zrotation Xrotation Yrotation
                                    JOINT RightFinger22
                                    {
                                        OFFSET  -2.788160   0.000000   0.000000
                                        CHANNELS 3 Zrotation Xrotation Yrotation
                                        End Site
                                        {
                                            OFFSET  -2.727660   0.000000   0.000000
                                        }
                                    }
                                }
                            }
                            JOINT RightFinger3
                            {
                                OFFSET  -7.899780   0.000000  -1.078090
                                CHANNELS 3 Zrotation Xrotation Yrotation
                                JOINT RightFinger31
                                {
                                    OFFSET  -4.646930   0.000000   0.000000
                                    CHANNELS 3 Zrotation Xrotation Yrotation
                                    JOINT RightFinger32
                                    {
                                        OFFSET  -2.323470   0.000000   0.000000
                                        CHANNELS 3 Zrotation Xrotation Yrotation
                                        End Site
                                        {
                                            OFFSET  -2.273050   0.000000   0.000000
                                        }
                                    }
                                }
                            }
                            JOINT RightFinger4
                            {
                                OFFSET  -7.435090   0.000000  -3.252850
                                CHANNELS 3 Zrotation Xrotation Yrotation
                                JOINT RightFinger41
                                {
                                    OFFSET  -3.717550   0.000000   0.000000
                                    CHANNELS 3 Zrotation Xrotation Yrotation
                                    JOINT RightFinger42
                                    {
                                        OFFSET  -1.858770   0.000000   0.000000
                                        CHANNELS 3 Zrotation Xrotation Yrotation
                                        End Site
                                        {
                                            OFFSET  -1.818440   0.000000   0.000000
                                        }
                                    }
                                }
                            }
                        }
                    }
                }
            }
        }
    }
    JOINT LeftHip
    {
        OFFSET   9.783040   0.000000   0.000000
        CHANNELS 3 Zrotation Xrotation Yrotation
        JOINT LeftKnee
        {
            OFFSET   0.000032 -41.789100  -0.002222
            CHANNELS 3 Zrotation Xrotation Yrotation
            JOINT LeftAnkle
            {
                OFFSET   0.000087 -41.133200  -0.000135
                CHANNELS 3 Zrotation Xrotation Yrotation
                JOINT LeftToe
                {
                    OFFSET   0.000000  -6.358960  14.674500
                    CHANNELS 3 Zrotation Xrotation Yrotation
                    End Site
                    {
                        OFFSET   0.000000   0.000000   3.913200
                    }
                }
            }
        }
    }
    JOINT RightHip
    {
        OFFSET  -9.783040   0.000000   0.000000
        CHANNELS 3 Zrotation Xrotation Yrotation
        JOINT RightKnee
        {
            OFFSET   0.000047 -41.789100  -0.000896
            CHANNELS 3 Zrotation Xrotation Yrotation
            JOINT RightAnkle
            {
                OFFSET  -0.000117 -41.133300  -0.000248
                CHANNELS 3 Zrotation Xrotation Yrotation
                JOINT RightToe
                {
                    OFFSET   0.000000  -6.358970  14.674500
                    CHANNELS 3 Zrotation Xrotation Yrotation
                    End Site
                    {
                        OFFSET   0.000000   0.000000   3.913200
                    }
                }
            }
        }
    }
}
MOTION
Frames: 6
Frame Time:   0.016667
 -0.707286  89.426600   1.141260  -3.418410 -20.333600   0.804803   3.525410  13.968200  -2.699120   8.123840  27.714300  -6.614900   3.630030  -5.956780   0.378947   6.141680 -11.933600   9.906680  -7.767290  -6.098600   3.206060 -53.713200  45.226300 -17.757200   5.147030  11.967200 -76.918000 -15.724500   7.625300   1.880700  38.304200  36.228100 -79.760200   8.715840  -0.000166   0.000067   9.357930   0.000980   0.000802 -40.231200   8.883670 -10.343900 -33.576000   0.001270   0.000165 -23.747000   0.000179  -0.001270 -30.008500   1.957050  -3.383210 -45.101200  -0.002136   0.001328 -30.037400  -0.001131  -0.000202 -21.873600  -1.646600   4.089310 -21.931500  -0.005292   0.001667 -14.606400  -0.003993  -0.000860 -27.432400  -8.521540  15.940500 -42.941700  -0.008660   0.000986 -28.599100  -0.003313  -0.000810   0.704288  -8.027750  13.025100  53.125800  43.615100   4.169400 -11.624500   4.942890  84.850200  16.339700  -0.246600  23.053800 -42.988300  28.041400  62.519200  19.889100  -0.001576   0.000656   4.944590   0.001669  -0.000207  12.293900   4.407920  19.451000  10.677800   0.002029  -0.007477   7.474470  -0.002668  -0.001823   8.025270   0.916413   6.466040   8.077790  -0.004742  -0.002163   5.379800  -0.001780  -0.003444   4.901900  -0.235679  -2.737390   4.907400  -0.008186  -0.000784   3.268340  -0.005828   0.000458   7.032140  -1.171160  -9.412430  10.693600   0.002799  -0.006436   7.121960   0.001702  -0.006575   4.198710  25.178200   2.180730   1.735550   0.106762   0.048960  -2.409650  -4.165420  -3.047310   0.000000   0.000000  -0.000000   3.556340  16.669600  -4.003510  -0.030503   9.098270  -0.574661  -4.063580  -5.059910   1.693650   0.000000   0.000000  -0.000000
 -0.710125  89.436800   1.171190  -3.383290 -20.316800   0.859810   3.520300  13.929600  -2.710360   8.111540  27.636800  -6.632170   3.604530  -6.011360   0.378981   6.104980 -12.044600   9.834340  -7.679980  -6.039520   3.226860 -53.635700  45.039400 -17.523300   5.076910  12.208700 -77.862400 -15.486500   7.870670   2.135260  38.212000  36.069000 -79.603700   8.609730  -0.000194   0.000078   9.304870   0.000918   0.000812 -40.016600   8.908340 -10.448600 -33.408400   0.001397   0.000129 -23.593600   0.000241  -0.001221 -29.702200   2.080250  -3.641500 -44.652900  -0.002143   0.001277 -29.738800  -0.001143  -0.000241 -21.349200  -1.607870   4.099490 -21.406300  -0.005336   0.001718 -14.256600  -0.004020  -0.000841 -27.270500  -8.410340  15.842700 -42.663500  -0.008760   0.001109 -28.413900  -0.003341  -0.000761   0.682867  -7.936130  13.045100  53.406600  44.030700   3.708550 -11.527400   4.415750  85.336600  16.175700   0.633250  22.471200 -43.287600  28.791500  63.128300  20.088900  -0.001530   0.000677   5.044490   0.001616  -0.000148  12.160700   4.371540  19.480900  10.563900   0.002104  -0.007653   7.394720  -0.002712  -0.001843   8.010910   0.952271   6.732340   8.067700  -0.004799  -0.002140   5.373080  -0.001834  -0.003465   4.938890  -0.243315  -2.813940   4.944960  -0.008333  -0.000804   3.293350  -0.005926   0.000465   7.148940  -1.159960  -9.177640  10.864000   0.002860  -0.006602   7.235410   0.001698  -0.006638   4.188270  25.175700   2.180100   1.728130   0.077236   0.059019  -2.420130  -4.139320  -3.103870  -0.000000   0.000000   0.000000   3.549610  16.682000  -4.012200  -0.028479   9.080190  -0.598762  -4.072830  -5.066240   1.675910   0.000000   0.000000   0.000000
 -0.716175  89.443600   1.193180  -3.365500 -20.317500   0.899929   3.517680  13.910700  -2.722700   8.107050  27.598300  -6.654940   3.578560  -6.083750   0.378973   6.065460 -12.191800   9.773290  -7.592840  -5.985770   3.245700 -53.537800  44.766700 -17.300400   5.153290  12.441000 -78.816100 -15.202600   7.931110   2.479560  38.068800  35.818800 -79.359100   8.497750  -0.000214   0.000086   9.248870   0.000867   0.000817 -40.028400   8.899450 -10.434200 -33.416600   0.001512   0.000064 -23.601100   0.000298  -0.001146 -29.503300   2.220980  -3.915670 -44.370400  -0.002143   0.001229 -29.550700  -0.001155  -0.000281 -21.105400  -1.561620   4.040140 -21.160600  -0.005392   0.001768 -14.093000  -0.004047  -0.000820 -27.275700  -8.422970  15.861500 -42.676300  -0.008853   0.001225 -28.422400  -0.003372  -0.000729   0.655101  -7.852810  13.078500  53.622500  44.290300   3.298530 -11.534400   4.033590  85.864100  16.088100   1.368880  22.044800 -43.332200  29.377800  63.647100  20.416900  -0.001473   0.000627   5.208480   0.001574  -0.000073  12.075600   4.345760  19.503800  10.491400   0.002178  -0.007829   7.343990  -0.002764  -0.001864   7.980490   0.973980   6.911700   8.040540  -0.004843  -0.002119   5.354990  -0.001894  -0.003485   4.933960  -0.245674  -2.862230   4.940250  -0.008497  -0.000823   3.290210  -0.006019   0.000468   7.210310  -1.141220  -8.922580  10.949800   0.002940  -0.006775   7.292550   0.001695  -0.006697   4.176090  25.192200   2.194700   1.735280   0.032085   0.056301  -2.423170  -4.103010  -3.151050  -0.000000   0.000000  -0.000000   3.559540  16.682500  -4.002530  -0.032474   9.109090  -0.636385  -4.082650  -5.088970   1.660120   0.000000   0.000000   0.000000
 -0.722687  89.446500   1.211190  -3.355280 -20.323600   0.927490   3.516150  13.906100  -2.736990   8.107140  27.588100  -6.683810   3.554170  -6.156260   0.378914   6.028500 -12.339000   9.720720  -7.513610  -5.943400   3.263390 -53.486000  44.462900 -17.078900   5.238650  12.726400 -79.555200 -15.004000   7.938590   2.709710  37.891300  35.502600 -79.054400   8.326090  -0.000231   0.000092   9.163040   0.000821   0.000820 -40.110900   8.837150 -10.333800 -33.474300   0.001629   0.000000 -23.653800   0.000357  -0.001073 -29.412300   2.340340  -4.142620 -44.245500  -0.002143   0.001182 -29.467500  -0.001169  -0.000322 -21.046000  -1.514630   3.929520 -21.097100  -0.005447   0.001819 -14.050700  -0.004072  -0.000798 -27.311700  -8.511240  15.993500 -42.765800  -0.008943   0.001342 -28.482000  -0.003402  -0.000700   0.630863  -7.779760  13.100500  53.694700  44.396100   3.079970 -11.568500   3.777940  86.317700  16.053100   1.734730  21.844700 -43.280900  29.673100  63.898400  20.911600  -0.001414   0.000577   5.455850   0.001534  -0.000000  12.042500   4.336620  19.516300  10.463400   0.002253  -0.008005   7.324420  -0.002819  -0.001883   7.952550   0.996448   7.097510   8.013930  -0.004885  -0.002099   5.337270  -0.001950  -0.003507   4.901600  -0.246010  -2.873290   4.907260  -0.008660  -0.000843   3.268240  -0.006112   0.000471   7.236990  -1.121930  -8.765480  10.984300   0.003017  -0.006946   7.315580   0.001688  -0.006754   4.159820  25.225000   2.215240   1.752690   0.001870   0.049191  -2.423970  -4.079200  -3.174150   0.000000   0.000000   0.000000   3.579240  16.683300  -3.975520  -0.042276   9.170100  -0.681450  -4.092050  -5.124900   1.643990   0.000000   0.000000  -0.000000
 -0.727603  89.443800   1.227530  -3.352620 -20.349500   0.944835   3.514850  13.909800  -2.757670   8.110390  27.594000  -6.727180   3.535930  -6.211360   0.378827   6.003170 -12.450600   9.682810  -7.461360  -5.919170   3.280180 -53.573600  44.192200 -16.846600   5.346030  13.008700 -79.878400 -14.966200   7.672770   2.715260  37.660700  35.082000 -78.655000   8.018130  -0.000253   0.000097   9.009060   0.000777   0.000825 -40.391100   8.685670 -10.064500 -33.676600   0.001766  -0.000034 -23.839000   0.000426  -0.001041 -29.396500   2.413720  -4.276830 -44.228900  -0.002141   0.001135 -29.456400  -0.001183  -0.000367 -21.177700  -1.489630   3.839000 -21.225600  -0.005485   0.001877 -14.136200  -0.004095  -0.000776 -27.444300  -8.795100  16.403300 -43.073400  -0.009037   0.001464 -28.686800  -0.003428  -0.000661   0.626044  -7.709930  13.099500  53.605500  44.390200   3.104650 -11.753700   3.737380  86.558500  16.077400   1.656280  21.858900 -42.806000  29.487100  63.629000  21.669700  -0.001358   0.000585   5.834890   0.001489   0.000045  12.123400   4.349310  19.445800  10.529100   0.002331  -0.008180   7.370400  -0.002872  -0.001897   7.940050   1.021850   7.307850   8.001380  -0.004938  -0.002077   5.328910  -0.001985  -0.003532   4.759160  -0.233042  -2.777150   4.762250  -0.008805  -0.000863   3.171660  -0.006211   0.000477   7.126950  -1.113680  -8.824250  10.818700   0.003075  -0.007110   7.205250   0.001665  -0.006806   4.144310  25.260600   2.224120   1.779990   0.002000   0.034339  -2.424650  -4.079780  -3.173200   0.000000   0.000000  -0.000000   3.602430  16.686000  -3.918780  -0.050427   9.251090  -0.749193  -4.099830  -5.168470   1.624900   0.000000   0.000000   0.000000
 -0.731330  89.436700   1.241810  -3.353610 -20.391300   0.950945   3.512930  13.917100  -2.777780   8.112540  27.607100  -6.769670   3.527090  -6.238120   0.378692   5.987720 -12.505300   9.646220  -7.438730  -5.910980   3.293740 -53.737800  43.959800 -16.630000   5.404080  13.216200 -79.918600 -14.940900   7.219370   2.713490  37.487100  34.756300 -78.352400   7.691560  -0.000265   0.000099   8.845780   0.000733   0.000830 -40.739500   8.457960  -9.690240 -33.922100   0.001906  -0.000059 -24.064100   0.000497  -0.001012 -29.391600   2.441930  -4.325520 -44.226500  -0.002139   0.001088 -29.454800  -0.001197  -0.000415 -21.445100  -1.450000   3.689020 -21.489700  -0.005522   0.001931 -14.312100  -0.004114  -0.000752 -27.649400  -9.154190  16.891200 -43.519500  -0.009131   0.001587 -28.984000  -0.003454  -0.000626   0.651141  -7.672810  13.098600  53.471200  44.366900   3.209670 -11.894100   3.776620  86.643500  16.191000   1.250420  21.960700 -41.948700  29.064500  63.138500  22.561300  -0.001302   0.000596   6.280640   0.001443   0.000088  12.326900   4.394890  19.324200  10.698500   0.002410  -0.008355   7.488960  -0.002925  -0.001909   7.929040   1.061270   7.582060   7.997590  -0.004987  -0.002055   5.326390  -0.002021  -0.003558   4.637700  -0.204243  -2.506470   4.640200  -0.008951  -0.000883   3.090370  -0.006306   0.000481   7.017320  -1.102940  -8.883010  10.653000   0.003125  -0.007269   7.094920   0.001636  -0.006857   4.125970  25.305900   2.227540   1.810490   0.002129   0.023879  -2.424740  -4.083900  -3.166540  -0.000000   0.000000   0.000000   3.628560  16.695900  -3.873620  -0.064563   9.336740  -0.792781  -4.104940  -5.214990   1.603330  -0.000000   0.000000   0.000000
